HIERARCHY
ROOT Hips
{
 OFFSET 0.000000 0.000000 0.000000
 CHANNELS 6 Xposition Yposition Zposition Yrotation Xrotation Zrotation
 JOINT Chest
 {
  OFFSET 0.000000 9.585900 0.002600
  CHANNELS 3 Yrotation Xrotation Zrotation
  JOINT Chest2
  {
   OFFSET 0.000000 9.601200 -0.005300
   CHANNELS 3 Yrotation Xrotation Zrotation
   JOINT Chest3
   {
    OFFSET 0.000000 9.561800 0.000000
    CHANNELS 3 Yrotation Xrotation Zrotation
    JOINT Chest4
    {
     OFFSET 0.000000 9.552100 0.000000
     CHANNELS 3 Yrotation Xrotation Zrotation
     JOINT Neck
     {
      OFFSET 0.000000 14.453000 0.000000
      CHANNELS 3 Yrotation Xrotation Zrotation
      JOINT Head
      {
       OFFSET 0.000000 8.936500 -0.011300
       CHANNELS 3 Yrotation Xrotation Zrotation
       End Site
       {
        OFFSET 0.000000 17.073600 -0.006000
       }
      }
     }
     JOINT RightCollar
     {
      OFFSET -2.921100 9.558500 0.000000
      CHANNELS 3 Yrotation Xrotation Zrotation
      JOINT RightShoulder
      {
       OFFSET -13.519700 0.000000 0.000000
       CHANNELS 3 Yrotation Xrotation Zrotation
       JOINT RightElbow
       {
        OFFSET 0.000000 -29.696600 0.000000
        CHANNELS 3 Yrotation Xrotation Zrotation
        JOINT RightWrist
        {
         OFFSET 0.000000 -24.004700 0.000000
         CHANNELS 3 Yrotation Xrotation Zrotation
         End Site
         {
          OFFSET 0.000000 -17.728500 0.000000
         }
        }
       }
      }
     }
     JOINT LeftCollar
     {
      OFFSET 2.921100 9.558500 0.000000
      CHANNELS 3 Yrotation Xrotation Zrotation
      JOINT LeftShoulder
      {
       OFFSET 13.519700 0.000000 0.000000
       CHANNELS 3 Yrotation Xrotation Zrotation
       JOINT LeftElbow
       {
        OFFSET 0.000000 -29.696600 0.000000
        CHANNELS 3 Yrotation Xrotation Zrotation
        JOINT LeftWrist
        {
         OFFSET 0.000000 -24.004700 0.000000
         CHANNELS 3 Yrotation Xrotation Zrotation
         End Site
         {
          OFFSET 0.000000 -17.728500 0.000000
         }
        }
       }
      }
     }
    }
   }
  }
 }
 JOINT RightHip
 {
  OFFSET -7.771700 -0.012900 -0.001300
  CHANNELS 3 Yrotation Xrotation Zrotation
  JOINT RightKnee
  {
   OFFSET 0.000000 -40.869800 0.001200
   CHANNELS 3 Yrotation Xrotation Zrotation
   JOINT RightAnkle
   {
    OFFSET 0.000000 -39.717900 0.002100
    CHANNELS 3 Yrotation Xrotation Zrotation
    JOINT RightToe
    {
     OFFSET 0.000000 -4.965400 11.033500
     CHANNELS 3 Yrotation Xrotation Zrotation
     End Site
     {
      OFFSET 0.000000 -1.423100 5.872300
     }
    }
   }
  }
 }
 JOINT LeftHip
 {
  OFFSET 7.771700 -0.012900 -0.001300
  CHANNELS 3 Yrotation Xrotation Zrotation
  JOINT LeftKnee
  {
   OFFSET 0.000000 -40.869800 0.001200
   CHANNELS 3 Yrotation Xrotation Zrotation
   JOINT LeftAnkle
   {
    OFFSET 0.000000 -39.717900 0.002100
    CHANNELS 3 Yrotation Xrotation Zrotation
    JOINT LeftToe
    {
     OFFSET 0.000000 -4.965400 11.033500
     CHANNELS 3 Yrotation Xrotation Zrotation
     End Site
     {
      OFFSET 0.000000 -1.423100 5.872300
     }
    }
   }
  }
 }
}
MOTION
Frames: 11
Frame Time: 0.008333
-3.050132 48.999999 37.160556 173.034658 -35.742639 -4.621632 5.511328 19.962858 5.196089 0.615216 2.667754 0.569102 0.997950 4.292919 0.903141 4.574984 17.145218 4.277003 -1.652390 17.139796 2.971106 -4.061272 -3.819844 6.050762 0.312810 -1.537106 -3.776296 4.423851 -5.794922 0.990243 90.514725 -77.670871 -102.713998 1.885720 -0.567619 4.229847 -9.738256 -1.416848 -1.710110 1.834447 -5.822674 -0.097515 -127.954018 -70.854295 117.811348 11.715609 -8.075559 11.016857 4.530109 -45.560972 4.810835 -91.646586 81.995484 -80.339916 0.305209 -7.596562 -2.230358 0.060730 0.784905 0.208135 -8.562701 -49.201873 13.011905 -167.933467 85.371578 -175.233872 -1.240652 -11.175280 5.711295 -0.004022 0.057543 0.103247
-3.036800 49.012493 37.157821 173.025904 -35.709922 -4.623256 5.534692 19.971852 5.234186 0.608736 2.646933 0.555999 1.008134 4.318755 0.923091 4.562239 17.123363 4.263051 -1.642165 17.154699 2.977861 -3.998613 -3.716112 6.082882 0.313409 -1.528073 -3.747546 4.412420 -5.809586 0.953081 90.485244 -77.682035 -102.693801 1.916687 -0.452602 4.334607 -9.744107 -1.388280 -1.691192 1.886240 -5.887875 -0.082212 -127.780207 -70.766514 117.662817 11.660121 -7.778389 10.710563 4.303672 -45.592836 4.952638 -91.780066 81.904742 -80.526728 0.397289 -7.667830 -2.394415 0.060977 0.675301 0.222945 -8.639343 -49.219486 13.105100 -167.875252 85.364188 -175.221357 -1.261788 -11.183258 5.704868 -0.000137 0.043776 0.088934
-3.024419 49.036310 37.155693 173.041869 -35.673769 -4.635938 5.538831 19.976545 5.266494 0.609189 2.648966 0.558149 1.008860 4.321805 0.926674 4.568469 17.137960 4.288063 -1.612969 17.197655 2.994567 -3.970596 -3.674113 6.089432 0.291295 -1.553297 -3.752580 4.397298 -5.782750 0.970787 90.649726 -77.669624 -102.863797 1.962450 -0.316864 4.456852 -9.769041 -1.427378 -1.711247 1.906127 -5.917743 -0.086303 -127.471741 -70.625350 117.427811 11.593283 -7.426352 10.359076 4.131895 -45.656738 5.035019 -92.153337 81.794128 -80.919586 0.495581 -7.675865 -2.511503 0.089803 0.599284 0.235248 -8.743607 -49.224734 13.196513 -167.761095 85.372124 -175.158450 -1.273002 -11.206170 5.670455 0.007111 0.031444 0.077614
-3.006251 49.073557 37.155449 173.056191 -35.637880 -4.688807 5.552393 19.976480 5.337540 0.610334 2.651469 0.560709 1.011976 4.345451 0.944118 4.561437 17.132238 4.297831 -1.581401 17.241115 3.005784 -3.936127 -3.634335 6.085398 0.274862 -1.584277 -3.774473 4.367959 -5.718395 1.060835 90.973709 -77.609563 -103.176122 2.027409 -0.147663 4.581167 -9.782156 -1.463887 -1.733671 1.938062 -5.938825 -0.073403 -127.185082 -70.474112 117.223044 11.514223 -7.013697 9.956170 3.999605 -45.738232 5.112464 -92.608952 81.707604 -81.355789 0.597956 -7.695320 -2.586003 0.088654 0.547735 0.219824 -8.897442 -49.203821 13.352515 -167.380664 85.398509 -174.830887 -1.254648 -11.245473 5.622205 -0.001398 0.044703 0.091044
-2.992942 49.125121 37.152530 173.089632 -35.622534 -4.730698 5.526917 20.018328 5.396408 0.617940 2.630563 0.543589 1.005938 4.354863 0.955414 4.557514 17.123765 4.293480 -1.569287 17.246702 2.995672 -3.870272 -3.543643 6.089708 0.275227 -1.607876 -3.798873 4.347607 -5.694034 1.103713 91.102438 -77.585189 -103.291914 2.083560 0.075993 4.694259 -9.782810 -1.393718 -1.675918 1.986187 -6.027669 -0.138201 -126.876307 -70.289765 117.008229 11.423864 -6.536279 9.497341 3.947470 -45.805087 5.111796 -93.047667 81.687496 -81.754203 0.629360 -7.670584 -2.583809 0.045804 0.429556 0.141697 -9.033103 -49.157194 13.460137 -166.909110 85.433065 -174.414180 -1.228695 -11.268993 5.597159 -0.000645 0.036512 0.080273
-2.966957 49.189975 37.149405 173.141402 -35.631968 -4.870382 5.519019 20.042956 5.528760 0.619424 2.639100 0.549349 0.998747 4.362326 0.963663 4.557737 17.100682 4.267114 -1.552804 17.273426 3.007453 -3.811279 -3.478090 6.080821 0.267901 -1.586434 -3.775764 4.329613 -5.697442 1.110001 91.235994 -77.551431 -103.402302 2.150813 0.337730 4.794928 -9.787407 -1.360497 -1.644222 2.046141 -6.038912 -0.154067 -126.600774 -70.079081 116.833972 11.319740 -5.992060 8.965131 3.807889 -45.834324 5.241269 -93.343406 81.670358 -82.006242 0.672363 -7.732236 -2.568128 -0.018833 0.432987 0.066257 -9.227610 -49.079734 13.663463 -166.379590 85.457796 -173.894704 -1.201816 -11.279421 5.573971 0.000460 0.012548 0.065225
-2.948759 49.256335 37.151457 173.163042 -35.604294 -4.963997 5.522998 20.032248 5.625964 0.606534 2.662231 0.571278 1.004579 4.342364 0.947808 4.545354 17.110359 4.280635 -1.524888 17.299250 3.000740 -3.782613 -3.476570 6.052655 0.254793 -1.573267 -3.761571 4.334087 -5.714634 1.080072 91.363756 -77.521687 -103.506432 2.253119 0.620272 4.888367 -9.778121 -1.370653 -1.653921 2.094065 -6.014066 -0.161979 -126.346640 -69.843220 116.707427 11.197562 -5.378808 8.336186 3.779874 -45.900992 5.253754 -93.653901 81.689659 -82.215441 0.750893 -7.788438 -2.593765 -0.098100 0.461131 0.020161 -9.372364 -49.043793 13.823509 -165.819478 85.492614 -173.347691 -1.169174 -11.281843 5.557033 0.001244 -0.011918 0.051717
-2.931922 49.324385 37.153518 173.211773 -35.579859 -5.080804 5.512076 20.028386 5.732887 0.603624 2.662276 0.573765 1.004024 4.329637 0.940207 4.530844 17.123756 4.312932 -1.494206 17.336063 3.012685 -3.789912 -3.524790 6.001343 0.263056 -1.588768 -3.797557 4.317511 -5.699265 1.088457 91.485211 -77.392970 -103.624257 2.302123 0.934206 4.998293 -9.823288 -1.297041 -1.583924 2.194653 -6.052143 -0.257305 -126.143727 -69.605861 116.648598 11.058145 -4.701563 7.592223 3.693519 -45.947393 5.292895 -93.852276 81.742823 -82.330635 0.793941 -7.822530 -2.593535 -0.157321 0.483246 -0.043662 -9.573171 -48.992110 14.007111 -165.319692 85.532829 -172.879867 -1.130983 -11.313799 5.546719 -0.008115 -0.007484 0.033054
-2.920437 49.392618 37.150970 173.300365 -35.584663 -5.201511 5.468236 20.060059 5.824452 0.600918 2.655119 0.571615 1.001410 4.321832 0.935709 4.513986 17.133453 4.339097 -1.475610 17.349939 3.010576 -3.746115 -3.520954 5.959385 0.273986 -1.602367 -3.828495 4.308287 -5.688733 1.088747 91.641483 -77.251329 -103.781836 2.384467 1.267116 5.109564 -9.841441 -1.264766 -1.556569 2.294308 -5.975578 -0.303080 -126.177992 -69.351926 116.809564 10.913692 -3.972529 6.700784 3.533151 -45.935617 5.339714 -94.034901 81.803182 -82.422465 0.737111 -7.860904 -2.661430 -0.102736 0.497277 -0.061945 -9.755717 -48.926161 14.132937 -165.000759 85.568583 -172.576472 -1.105914 -11.307297 5.531753 -0.008520 -0.030532 0.023655
-2.919398 49.453854 37.148901 173.351963 -35.579357 -5.253773 5.435453 20.086161 5.864827 0.601092 2.632452 0.560049 0.994161 4.342611 0.955622 4.490718 17.136059 4.351801 -1.463100 17.336212 2.978595 -3.703520 -3.508581 5.940625 0.275444 -1.628043 -3.846059 4.328861 -5.683345 1.062020 91.799446 -77.116558 -103.953334 2.508863 1.608432 5.233557 -9.826685 -1.283683 -1.583426 2.349642 -5.893401 -0.309126 -126.162102 -69.142703 116.927589 10.780431 -3.199611 5.622765 3.410484 -45.919086 5.346599 -94.092987 81.852185 -82.458194 0.771446 -7.929242 -2.704776 -0.119650 0.545651 -0.076062 -9.864359 -48.881609 14.178474 -164.924859 85.609339 -172.518087 -1.082424 -11.293076 5.514709 -0.007474 -0.062655 0.016302
-2.923137 49.508465 37.146568 173.393870 -35.572933 -5.284528 5.400521 20.115437 5.887011 0.602551 2.629182 0.561320 0.973016 4.383445 0.984698 4.442664 17.148031 4.376994 -1.431790 17.274478 2.895285 -3.632859 -3.472167 5.940050 0.309769 -1.708722 -3.913054 4.340962 -5.660424 1.030879 92.084656 -76.976684 -104.243141 2.651675 1.968543 5.387360 -9.806553 -1.317680 -1.607672 2.443860 -5.877705 -0.368657 -126.157529 -68.981475 117.052944 10.662727 -2.375986 4.346259 3.286017 -45.892690 5.342027 -94.098922 81.903431 -82.456701 0.813694 -8.008349 -2.761284 -0.139770 0.596032 -0.081511 -9.898519 -48.845897 14.169080 -164.827591 85.650699 -172.421851 -1.061016 -11.307558 5.525858 -0.012387 -0.067466 -0.001968
